<svg xmlns="http://www.w3.org/2000/svg" xmlns:xlink="http://www.w3.org/1999/xlink"><defs><symbol viewBox="0 0 13 16" id="icon-arrow"><path fill="#fff" d="M12.5 6.9H4.1l5.2-5.4L7.9 0 .3 8l1.4 1.5 6.1 6.4 1.5-1.5-5.2-5.5h8.4z" /></symbol><symbol viewBox="0 0 17 11" fill="none" id="icon-check">
<path fill-rule="evenodd" clip-rule="evenodd" d="M16.2633 0.707078C15.8728 0.316553 15.2396 0.316554 14.8491 0.707078L7.07092 8.48523L2.12117 3.53548C1.73064 3.14495 1.09748 3.14495 0.706956 3.53548C0.316431 3.926 0.316432 4.55917 0.706956 4.94969L6.35835 10.6011C6.36015 10.6029 6.36197 10.6047 6.3638 10.6066C6.75432 10.9971 7.38749 10.9971 7.77801 10.6066L7.77802 10.6065L16.2633 2.12129C16.6538 1.73077 16.6538 1.0976 16.2633 0.707078Z" fill="#1C6CD5" />
</symbol><symbol viewBox="0 0 39 52" fill="none" id="icon-clock">
<path d="M19.5 0C8.74453 0 0 8.74453 0 19.5C0 33.018 17.6008 50.7711 18.3523 51.5227C18.6672 51.8375 19.0836 52 19.5 52C19.9164 52 20.3328 51.8375 20.6477 51.5227C21.3992 50.7711 39 33.018 39 19.5C39 8.74453 30.2555 0 19.5 0Z" fill="#1C6CD5" />
<path d="M19.5 6.5C12.3195 6.5 6.5 12.3195 6.5 19.5C6.5 26.6805 12.3195 32.5 19.5 32.5C26.6805 32.5 32.5 26.6805 32.5 19.5C32.5 12.3195 26.6805 6.5 19.5 6.5ZM24.375 22.75H17.875C16.9812 22.75 16.25 22.0188 16.25 21.125V14.625C16.25 13.7312 16.9812 13 17.875 13C18.7688 13 19.5 13.7312 19.5 14.625V19.5H24.375C25.2687 19.5 26 20.2312 26 21.125C26 22.0188 25.2687 22.75 24.375 22.75Z" fill="white" />
</symbol><symbol viewBox="0 0 21 20" fill="none" id="icon-error">
<path d="M19.8671 18.7005L10.7471 0.464467C10.2939 -0.323436 9.42844 0.0398976 9.25698 0.464467L0.0838234 18.7944C-0.230521 19.5293 0.410415 20.0232 0.830903 19.9987H19.169C19.1731 19.9987 19.1731 19.9987 19.1772 19.9987C19.8345 20.0355 20.2305 19.2558 19.8671 18.7005ZM2.17809 18.3372L9.99997 2.70162L17.8218 18.3372H2.17809Z" fill="#FF3600" />
<path d="M9.16699 7.84966V12.9894C9.16699 13.4507 9.53849 13.8222 9.9998 13.8222C10.4611 13.8222 10.8326 13.4507 10.8326 12.9894V7.84966C10.8326 7.38834 10.4611 7.01685 9.9998 7.01685C9.53849 7.01685 9.16699 7.38834 9.16699 7.84966Z" fill="#FF3600" />
<path d="M9.99998 16.7573C10.4622 16.7573 10.8369 16.3826 10.8369 15.9204C10.8369 15.4582 10.4622 15.0835 9.99998 15.0835C9.53777 15.0835 9.16309 15.4582 9.16309 15.9204C9.16309 16.3826 9.53777 16.7573 9.99998 16.7573Z" fill="#FF3600" />
</symbol><symbol viewBox="0 0 39 52" fill="none" id="icon-home">
<path d="M19.5 0C8.74453 0 0 8.74453 0 19.5C0 33.018 17.6008 50.7711 18.3523 51.5227C18.6672 51.8375 19.0836 52 19.5 52C19.9164 52 20.3328 51.8375 20.6477 51.5227C21.3992 50.7711 39 33.018 39 19.5C39 8.74453 30.2555 0 19.5 0Z" fill="#1C6CD5" />
<path d="M28.6407 16.6053L20.5157 10.1053C19.9164 9.62798 19.0836 9.62798 18.4844 10.1053L10.3594 16.6053C9.82113 17.042 9.60785 17.7631 9.84144 18.4131C10.075 19.0631 10.6844 19.4999 11.375 19.4999H13V27.6249C13 28.5186 13.7313 29.2499 14.625 29.2499H24.375C25.2688 29.2499 26 28.5186 26 27.6249V19.4999H27.625C28.3157 19.4999 28.925 19.0631 29.1586 18.4131C29.3922 17.7631 29.1789 17.0319 28.6407 16.6053Z" fill="white" />
</symbol><symbol viewBox="0 0 39 52" fill="none" id="icon-person">
<path d="M19.5 0C8.74453 0 0 8.74453 0 19.5C0 33.018 17.6008 50.7711 18.3523 51.5227C18.6672 51.8375 19.0836 52 19.5 52C19.9164 52 20.3328 51.8375 20.6477 51.5227C21.3992 50.7711 39 33.018 39 19.5C39 8.74453 30.2555 0 19.5 0Z" fill="#1C6CD5" />
<path d="M19.5 16.25C22.1914 16.25 24.375 14.0664 24.375 11.375C24.375 8.68359 22.1914 6.5 19.5 6.5C16.8086 6.5 14.625 8.68359 14.625 11.375C14.625 14.0664 16.8086 16.25 19.5 16.25ZM24.375 19.5H14.625C11.9336 19.5 9.75 21.6836 9.75 24.375V29.25H29.25V24.375C29.25 21.6836 27.0664 19.5 24.375 19.5Z" fill="white" />
</symbol></defs></svg>